<?xml version="1.0" encoding="utf-8"?>
<!-- Generator: Adobe Illustrator 20.1.0, SVG Export Plug-In . SVG Version: 6.00 Build 0)  -->
<svg version="1.1" id="Layer_1" xmlns="http://www.w3.org/2000/svg" xmlns:xlink="http://www.w3.org/1999/xlink" x="0px" y="0px"
	 viewBox="0 0 104 104" style="enable-background:new 0 0 104 104;" xml:space="preserve">
<g>
	<path style="fill:#5EB947;" d="M27.69,37.736c1.244-2.113,2.752-4.05,4.482-5.765L17.476,15.857
		c-3.697,3.533-6.85,7.63-9.33,12.144L27.69,37.736z"/>
	<path style="fill:#E3B531;" d="M63.715,26.353c2.225,1.019,4.295,2.32,6.163,3.861l14.737-16.09
		c-3.882-3.347-8.283-6.109-13.061-8.148L63.715,26.353z"/>
	<path style="fill:#C3202E;" d="M97.465,31.197l-19.532,9.737c0.933,2.176,1.596,4.489,1.955,6.901l21.728-2.051
		C100.975,40.64,99.552,35.736,97.465,31.197"/>
	<path style="fill:#4A9E46;" d="M76.531,38.112l19.53-9.736c-2.419-4.495-5.504-8.58-9.126-12.118L72.198,32.345
		C73.876,34.07,75.336,36.006,76.531,38.112"/>
	<path style="fill:#408045;" d="M23.808,51.992c0-0.44,0.014-0.879,0.034-1.315L2.109,48.73C2.041,49.808,2,50.895,2,51.992
		c0,4.168,0.517,8.218,1.479,12.088l20.99-6.022C24.039,56.103,23.808,54.074,23.808,51.992"/>
	<path style="fill:#F7C118;" d="M73.796,69.854c-1.545,1.88-3.328,3.556-5.3,4.986l11.475,18.579
		c4.258-2.886,8.05-6.41,11.237-10.435L73.796,69.854z"/>
	<path style="fill:#ED412A;" d="M80.192,51.992c0,2.057-0.221,4.064-0.646,5.996l20.987,6.03C101.49,60.164,102,56.136,102,51.992
		c0-1.03-0.034-2.051-0.097-3.069l-21.731,2.053C80.185,51.315,80.192,51.651,80.192,51.992"/>
	<path style="fill:#F89C28;" d="M30.556,70.269l-17.37,13.202c3.231,3.978,7.056,7.445,11.344,10.276l11.473-18.558
		C33.981,73.791,32.15,72.135,30.556,70.269"/>
	<path style="fill:#1A94D2;" d="M24.16,47.54c0.389-2.455,1.1-4.802,2.082-7.001L6.717,30.812C4.56,35.403,3.081,40.373,2.408,45.59
		L24.16,47.54z"/>
	<path style="fill:#A01C44;" d="M77.301,95.099L65.843,76.545c-2.082,1.176-4.324,2.098-6.687,2.717l4.044,21.463
		C68.231,99.568,72.975,97.65,77.301,95.099"/>
	<path style="fill:#27BBE0;" d="M78.71,61.026c-0.76,2.232-1.788,4.338-3.051,6.282l17.426,13.144
		c2.83-4.069,5.067-8.575,6.595-13.399L78.71,61.026z"/>
	<path style="fill:#F06A2C;" d="M56.066,79.888C54.74,80.08,53.382,80.185,52,80.185c-1.11,0-2.206-0.069-3.282-0.194l-4.042,21.463
		c2.393,0.351,4.836,0.537,7.324,0.537c2.759,0,5.468-0.227,8.106-0.658L56.066,79.888z"/>
	<path style="fill:#E5243C;" d="M53.802,23.856c2.422,0.155,4.761,0.616,6.976,1.347l7.839-20.371
		c-4.664-1.647-9.639-2.622-14.815-2.804V23.856z"/>
	<path style="fill:#DB1868;" d="M45.612,79.453c-2.444-0.57-4.766-1.457-6.92-2.617l-11.48,18.568
		c4.416,2.527,9.245,4.399,14.363,5.49L45.612,79.453z"/>
	<path style="fill:#15486A;" d="M43.527,25.102c2.264-0.715,4.652-1.151,7.122-1.267V2.01c-5.247,0.14-10.287,1.095-15.014,2.735
		L43.527,25.102z"/>
	<path style="fill:#C4952D;" d="M28.644,67.761c-1.385-2.045-2.514-4.285-3.325-6.666L4.344,67.114
		c1.589,5.003,3.943,9.664,6.928,13.849L28.644,67.761z"/>
	<path style="fill:#046A9B;" d="M34.533,29.878c1.844-1.46,3.872-2.69,6.046-3.658L32.691,5.873
		c-4.698,1.972-9.026,4.643-12.864,7.879L34.533,29.878z"/>
</g>
</svg>
