<svg xmlns="http://www.w3.org/2000/svg" xmlns:xlink="http://www.w3.org/1999/xlink" id="Layer_1" x="0px" y="0px" viewBox="0 0 474.5 95.243" style="enable-background:new 0 0 474.5 95.243;" xml:space="preserve"> <title>Digital Good</title> <rect x="140.618" y="70.72" style="fill:#F16B2D;" width="24.52" height="24.52"></rect> <path style="fill:#F8C219;" d="M99.671,85.434c-5.757,0-11.32-1.145-15.301-3.117v12.925h24.522V84.317 C106.114,85.051,103.044,85.434,99.671,85.434z"></path> <rect y="70.72" style="fill:#C4202F;" width="24.52" height="24.52"></rect> <rect x="28.124" y="70.72" style="fill:#EE422A;" width="24.52" height="24.52"></rect> <rect x="56.247" y="70.72" style="fill:#29BCE1;" width="24.52" height="24.52"></rect> <rect x="168.743" y="70.72" style="fill:#DC1769;" width="24.52" height="24.52"></rect> <rect x="196.867" y="70.72" style="fill:#F99E29;" width="24.52" height="24.52"></rect> <rect x="224.99" y="70.72" style="fill:#C5962E;" width="24.52" height="24.52"></rect> <rect x="253.114" y="70.72" style="fill:#418045;" width="24.52" height="24.52"></rect> <rect x="281.238" y="70.72" style="fill:#1D95D3;" width="24.52" height="24.52"></rect> <rect x="309.363" y="70.72" style="fill:#5FBA47;" width="24.52" height="24.52"></rect> <rect x="337.484" y="70.72" style="fill:#086A9D;" width="24.52" height="24.52"></rect> <rect x="365.61" y="70.72" style="fill:#16496B;" width="24.52" height="24.52"></rect> <rect x="393.731" y="70.72" style="fill:#E6253D;" width="24.52" height="24.52"></rect> <rect x="421.855" y="70.72" style="fill:#E4B632;" width="24.52" height="24.52"></rect> <rect x="449.98" y="70.72" style="fill:#4B9F46;" width="24.52" height="24.52"></rect> <path style="fill:#FFFFFF;" d="M0,3.992c4.79-0.798,10.909-1.241,17.385-1.241c11.176,0,18.892,2.307,24.391,6.917 c5.765,4.701,9.307,11.797,9.307,21.997c0,10.644-3.635,18.627-9.307,23.769c-5.942,5.411-15.432,8.162-27.052,8.162 c-6.386,0-11.176-0.355-14.724-0.798V3.992H0z M10.909,54.638c1.508,0.266,3.814,0.266,6.031,0.266 c14.191,0.089,22.623-7.716,22.623-22.884c0.089-13.216-7.539-20.755-21.191-20.755c-3.459,0-5.942,0.266-7.446,0.62v42.751 L10.909,54.638z"></path> <path style="fill:#FFFFFF;" d="M72.016,7.718c0,3.282-2.394,5.853-6.208,5.853c-3.637,0-6.031-2.577-6.031-5.853 c0-3.372,2.483-5.944,6.12-5.944C69.622,1.774,71.927,4.346,72.016,7.718z M60.397,62.974V19.779h10.998v43.194H60.397z"></path> <path style="fill:#FFFFFF;" d="M122.57,19.779c-0.178,2.927-0.355,6.475-0.355,12.417v24.485c0,9.046-1.861,15.521-6.386,19.602 c-4.523,3.991-10.739,5.233-16.675,5.233c-5.498,0-11.353-1.154-15.077-3.461l2.394-8.249c2.749,1.597,7.363,3.283,12.6,3.283 c7.096,0,12.417-3.723,12.417-13.038v-3.723h-0.178c-2.484,3.813-6.919,6.386-12.6,6.386c-10.739,0-18.361-8.869-18.361-21.11 c0-14.191,9.225-22.795,19.602-22.795c6.564,0,10.465,3.194,12.506,6.741h0.178l0.444-5.765h9.49L122.57,19.779z M111.306,37.075 c0-0.975-0.089-2.04-0.355-2.927c-1.153-3.992-4.257-7.007-8.869-7.007c-6.121,0-10.644,5.322-10.644,14.102 c0,7.363,3.723,13.305,10.554,13.305c4.079,0,7.629-2.66,8.87-6.564c0.284-1.282,0.433-2.59,0.444-3.903V37.075L111.306,37.075z"></path> <path style="fill:#FFFFFF;" d="M145.185,7.718c0,3.282-2.394,5.853-6.208,5.853c-3.637,0-6.031-2.577-6.031-5.853 c0-3.372,2.483-5.944,6.12-5.944C142.791,1.774,145.096,4.346,145.185,7.718z M133.565,62.974V19.779h10.998v43.194H133.565z"></path> <path style="fill:#FFFFFF;" d="M168.776,7.446v12.33h10.378v8.162h-10.378v19.069c0,5.233,1.42,7.983,5.584,7.983 c1.437,0.013,2.869-0.165,4.258-0.531l0.178,8.338c-1.597,0.62-4.439,1.064-7.894,1.064c-3.991,0-7.361-1.33-9.401-3.548 c-2.307-2.484-3.371-6.386-3.371-12.062V27.94h-6.208v-8.162h6.208v-9.755L168.776,7.446z"></path> <path style="fill:#FFFFFF;" d="M211.704,62.974l-0.716-4.79h-0.266c-2.66,3.371-7.184,5.765-12.772,5.765 c-8.693,0-13.571-6.3-13.571-12.861c0-10.909,9.668-16.409,25.63-16.323v-0.716c0-2.838-1.145-7.54-8.78-7.54 c-4.258,0-8.693,1.332-11.619,3.193l-2.119-7.079c3.193-1.952,8.781-3.814,15.607-3.814c13.836,0,17.828,8.781,17.828,18.184V52.6 c0,3.903,0.178,7.716,0.62,10.378h-9.844L211.704,62.974z M210.283,41.866c-7.716-0.178-15.077,1.508-15.077,8.07 c0,4.258,2.749,6.21,6.208,6.21c4.347,0,7.54-2.838,8.515-5.944c0.242-0.775,0.361-1.582,0.355-2.394v-5.942L210.283,41.866 L210.283,41.866z"></path> <path style="fill:#FFFFFF;" d="M232.454,0h10.998v62.974h-10.998V0z"></path> <path style="fill:#FFFFFF;" d="M321.944,60.225c-3.814,1.42-11.264,3.371-19.248,3.371c-10.109,0-17.739-2.577-23.415-7.983 c-5.322-5.054-8.425-12.95-8.336-21.996c0-18.893,13.481-31.044,33.262-31.044c7.361,0,13.126,1.508,15.875,2.838l-2.394,8.781 c-3.283-1.42-7.272-2.577-13.57-2.577c-12.773,0-21.731,7.54-21.731,21.463c0,13.571,8.336,21.642,20.753,21.642 c3.903,0,6.831-0.531,8.25-1.241V38.582h-10.556v-8.604h21.11v30.245L321.944,60.225z"></path> <path style="fill:#FFFFFF;" d="M374.268,40.978c0,15.876-11.176,22.972-22.174,22.972c-12.239,0-21.642-8.426-21.642-22.261 c0-14.192,9.307-22.885,22.351-22.885C365.667,18.803,374.268,27.851,374.268,40.978z M341.717,41.422 c0,8.338,4.081,14.636,10.739,14.636c6.208,0,10.556-6.121,10.556-14.814c0-6.741-3.014-14.462-10.467-14.462 c-7.722,0.003-10.828,7.454-10.828,14.638L341.717,41.422L341.717,41.422z"></path> <path style="fill:#FFFFFF;" d="M424.291,40.978c0,15.876-11.176,22.972-22.174,22.972c-12.242,0-21.642-8.426-21.642-22.261 c0-14.192,9.307-22.885,22.351-22.885C415.686,18.803,424.291,27.851,424.291,40.978z M391.739,41.422 c0,8.338,4.081,14.636,10.739,14.636c6.208,0,10.556-6.121,10.556-14.814c0-6.741-3.017-14.462-10.467-14.462 c-7.725,0.003-10.828,7.454-10.828,14.638L391.739,41.422L391.739,41.422z"></path> <path style="fill:#FFFFFF;" d="M473.07,0v50.83c0,4.439,0.178,9.224,0.355,12.151h-9.757l-0.444-6.828h-0.178 c-2.577,4.788-7.804,7.804-14.101,7.804c-10.289,0-18.451-8.781-18.451-22.085c-0.089-14.462,8.959-23.061,19.337-23.061 c5.942,0,10.2,2.484,12.151,5.676h0.178V0H473.07L473.07,0z M462.16,37.783c-0.001-0.952-0.09-1.902-0.266-2.838 c-0.975-4.257-4.439-7.716-9.403-7.716c-7.006,0-10.909,6.21-10.909,14.28c0,7.894,3.903,13.66,10.82,13.66 c4.439,0,8.339-3.015,9.403-7.716c0.266-0.977,0.355-2.04,0.355-3.194V37.783z"></path> <path style="fill:#A21C44;" d="M124.221,70.722c-1.233,3.529-3.076,6.365-5.576,8.621c-1.83,1.597-3.91,2.881-6.157,3.802v12.099 h24.522V70.722h-12.795H124.221z"></path> </svg>